<svg width="50" height="50" viewBox="0 0 50 50" fill="none" xmlns="http://www.w3.org/2000/svg">
<path d="M36.8544 18.28L37.0995 18.7158L37.3497 18.5751L37.3543 18.288L36.8544 18.28ZM36.8698 17.32L37.3698 17.328V17.32H36.8698ZM13.8 18.1754H13.3V18.4666L13.5534 18.6103L13.8 18.1754ZM13.8154 21.16L14.3154 21.1607L14.316 20.66H13.8154V21.16ZM36.8544 21.16L37.3544 21.1593L37.3533 20.3206L36.616 20.7205L36.8544 21.16ZM36.8698 32.68H37.3698V32.6793L36.8698 32.68ZM13.8 32.68L13.3 32.6793V32.68H13.8ZM0.5 25C0.5 38.531 11.469 49.5 25 49.5V48.5C12.0213 48.5 1.5 37.9787 1.5 25H0.5ZM25 0.5C11.469 0.5 0.5 11.469 0.5 25H1.5C1.5 12.0213 12.0213 1.5 25 1.5V0.5ZM49.5 25C49.5 11.469 38.531 0.5 25 0.5V1.5C37.9787 1.5 48.5 12.0213 48.5 25H49.5ZM25 49.5C38.531 49.5 49.5 38.531 49.5 25H48.5C48.5 37.9787 37.9787 48.5 25 48.5V49.5ZM36.8544 18.28C36.6093 17.8442 36.6093 17.8442 36.6093 17.8442C36.6092 17.8443 36.6091 17.8443 36.609 17.8444C36.6087 17.8445 36.6083 17.8448 36.6077 17.8451C36.6066 17.8457 36.6049 17.8466 36.6027 17.8479C36.5982 17.8504 36.5914 17.8542 36.5825 17.8592C36.5645 17.8693 36.5378 17.8843 36.5028 17.9038C36.4328 17.9429 36.3297 18.0004 36.1976 18.0735C35.9335 18.2199 35.5538 18.4291 35.0919 18.6803C34.1678 19.1827 32.9162 19.8521 31.6042 20.5211C30.2908 21.1908 28.9234 21.8567 27.766 22.3541C27.1869 22.603 26.6677 22.8065 26.2382 22.9469C25.7936 23.0923 25.4945 23.153 25.3344 23.153V24.153C25.6655 24.153 26.0949 24.0459 26.549 23.8974C27.0182 23.744 27.5679 23.5277 28.1609 23.2729C29.3477 22.7628 30.7375 22.0855 32.0584 21.4119C33.3808 20.7377 34.6407 20.0638 35.5696 19.5588C36.0342 19.3062 36.4163 19.0957 36.6824 18.9482C36.8154 18.8745 36.9195 18.8165 36.9904 18.7769C37.0259 18.7571 37.053 18.7419 37.0714 18.7316C37.0806 18.7264 37.0875 18.7225 37.0922 18.7199C37.0946 18.7186 37.0964 18.7176 37.0976 18.7169C37.0982 18.7165 37.0986 18.7163 37.099 18.7161C37.0991 18.716 37.0993 18.7159 37.0993 18.7159C37.0994 18.7158 37.0995 18.7158 36.8544 18.28ZM36.3698 17.312L36.3545 18.272L37.3543 18.288L37.3697 17.328L36.3698 17.312ZM34.9469 15.9C35.7339 15.9 36.3698 16.5368 36.3698 17.32H37.3698C37.3698 15.9835 36.2853 14.9 34.9469 14.9V15.9ZM15.7219 15.9H34.9469V14.9H15.7219V15.9ZM14.3 17.32C14.3 16.5366 14.936 15.9 15.7219 15.9V14.9C14.3843 14.9 13.3 15.9837 13.3 17.32H14.3ZM14.3 18.1754V17.32H13.3V18.1754H14.3ZM25.3344 23.153C25.1893 23.153 24.9015 23.0929 24.4605 22.9439C24.0365 22.8008 23.5203 22.5932 22.9422 22.3393C21.7872 21.8321 20.4148 21.1529 19.0937 20.47C17.774 19.7879 16.5119 19.1053 15.5793 18.593C15.1132 18.3369 14.7296 18.1236 14.4628 17.9743C14.3294 17.8997 14.2252 17.8411 14.1544 17.8013C14.119 17.7813 14.092 17.7661 14.0738 17.7558C14.0648 17.7507 14.0579 17.7468 14.0534 17.7442C14.0511 17.7429 14.0494 17.742 14.0483 17.7413C14.0477 17.741 14.0473 17.7408 14.047 17.7406C14.0469 17.7406 14.0468 17.7405 14.0467 17.7405C14.0467 17.7404 14.0466 17.7404 13.8 18.1754C13.5534 18.6103 13.5534 18.6103 13.5535 18.6104C13.5536 18.6104 13.5537 18.6105 13.5539 18.6106C13.5542 18.6108 13.5547 18.611 13.5553 18.6114C13.5565 18.6121 13.5583 18.6131 13.5607 18.6144C13.5654 18.6171 13.5724 18.6211 13.5817 18.6263C13.6002 18.6368 13.6277 18.6523 13.6635 18.6725C13.7351 18.7129 13.8403 18.7719 13.9746 18.8471C14.2434 18.9974 14.6292 19.212 15.0979 19.4695C16.035 19.9843 17.305 20.6711 18.6345 21.3584C19.9627 22.0449 21.3567 22.7352 22.5401 23.2549C23.1313 23.5146 23.6774 23.735 24.1405 23.8914C24.5866 24.042 25.0108 24.153 25.3344 24.153V23.153ZM25.3344 25.793C25.1838 25.793 24.8923 25.7352 24.4521 25.5958C24.0277 25.4614 23.5114 25.2667 22.9339 25.0287C21.7798 24.5531 20.4089 23.9166 19.0897 23.2766C17.7717 22.6374 16.5114 21.9977 15.5803 21.5176C15.1148 21.2777 14.7319 21.0777 14.4656 20.9379C14.3324 20.868 14.2284 20.8131 14.1578 20.7757C14.1225 20.757 14.0956 20.7427 14.0776 20.7332C14.0686 20.7284 14.0619 20.7248 14.0575 20.7225C14.0553 20.7213 14.0538 20.7205 14.053 20.7201C14.0525 20.7198 14.0526 20.7199 14.053 20.7201C14.0532 20.7202 14.0543 20.7208 14.0551 20.7212C14.0575 20.7225 14.2991 21.2864 13.8154 21.66V20.66C13.3316 21.0336 13.5733 21.5975 13.5759 21.5989C13.5767 21.5994 13.5781 21.6001 13.5786 21.6004C13.5795 21.6009 13.5805 21.6014 13.5812 21.6018C13.5827 21.6026 13.5847 21.6037 13.5871 21.6049C13.592 21.6076 13.5991 21.6113 13.6084 21.6163C13.6269 21.6261 13.6544 21.6407 13.6901 21.6596C13.7616 21.6974 13.8666 21.7528 14.0007 21.8232C14.269 21.9641 14.6541 22.1652 15.122 22.4064C16.0576 22.8888 17.3256 23.5324 18.6532 24.1764C19.9795 24.8197 21.3713 25.4664 22.553 25.9533C23.1433 26.1965 23.6882 26.4028 24.1501 26.5491C24.5962 26.6904 25.0163 26.793 25.3344 26.793V25.793ZM36.8544 21.16C36.616 20.7205 36.616 20.7205 36.616 20.7205C36.6159 20.7206 36.6158 20.7206 36.6157 20.7207C36.6154 20.7208 36.615 20.721 36.6145 20.7213C36.6134 20.7219 36.6117 20.7228 36.6095 20.724C36.605 20.7264 36.5983 20.7301 36.5895 20.7349C36.5717 20.7444 36.5452 20.7587 36.5106 20.7774C36.4412 20.8148 36.339 20.8696 36.2082 20.9395C35.9464 21.0793 35.5699 21.2792 35.1116 21.519C34.1946 21.999 32.9516 22.6384 31.6454 23.2774C30.3379 23.9171 28.9735 24.5531 27.8122 25.0282C27.2312 25.2659 26.708 25.4604 26.2723 25.5946C25.8235 25.7329 25.5115 25.793 25.3344 25.793V26.793C25.6711 26.793 26.1046 26.6927 26.5667 26.5503C27.042 26.4038 27.5955 26.1973 28.1908 25.9538C29.3822 25.4664 30.7694 24.8192 32.0849 24.1756C33.4018 23.5314 34.6534 22.8876 35.5753 22.405C36.0364 22.1637 36.4154 21.9625 36.6792 21.8216C36.8112 21.7511 36.9144 21.6957 36.9846 21.6579C37.0198 21.639 37.0467 21.6244 37.0649 21.6146C37.074 21.6097 37.0809 21.6059 37.0856 21.6034C37.0879 21.6022 37.0897 21.6012 37.0909 21.6005C37.0915 21.6002 37.0919 21.6 37.0923 21.5998C37.0924 21.5997 37.0925 21.5996 37.0926 21.5996C37.0927 21.5996 37.0928 21.5995 36.8544 21.16ZM37.3698 32.6793L37.3544 21.1593L36.3544 21.1607L36.3698 32.6807L37.3698 32.6793ZM34.9469 35.1C36.2853 35.1 37.3698 34.0165 37.3698 32.68H36.3698C36.3698 33.4632 35.7339 34.1 34.9469 34.1V35.1ZM15.7219 35.1H34.9469V34.1H15.7219V35.1ZM13.3 32.68C13.3 34.0165 14.3855 35.1 15.7219 35.1V34.1C14.9368 34.1 14.3 33.4632 14.3 32.68H13.3ZM13.3154 21.1593L13.3 32.6793L14.3 32.6807L14.3154 21.1607L13.3154 21.1593Z" fill="#10316B"/>
</svg>
