<svg width="50" height="50" viewBox="0 0 50 50" fill="none" xmlns="http://www.w3.org/2000/svg">
<path d="M25.0435 1.17993C11.8149 1.17993 1.08789 12.0878 1.08789 25.5445C1.08789 36.3096 7.95189 45.4426 17.4702 48.6643C18.6674 48.8899 19.1069 48.1358 19.1069 47.4922C19.1069 46.9112 19.0847 44.9919 19.0744 42.956C12.4099 44.4299 11.0037 40.0812 11.0037 40.0812C9.91394 37.265 8.34382 36.5161 8.34382 36.5161C6.17034 35.0039 8.50766 35.035 8.50766 35.035C10.9132 35.2065 12.1799 37.5458 12.1799 37.5458C14.3165 41.2707 17.784 40.1938 19.151 39.5712C19.366 37.9969 19.9868 36.9212 20.6719 36.3132C15.351 35.6971 9.75764 33.6079 9.75764 24.2719C9.75764 21.6118 10.6934 19.4383 12.2259 17.732C11.9771 17.1179 11.1572 14.6402 12.4579 11.2841C12.4579 11.2841 14.4696 10.6293 19.0474 13.7816C20.9583 13.2418 23.0076 12.971 25.0435 12.9618C27.0793 12.971 29.1302 13.2418 31.0447 13.7816C35.6169 10.6293 37.6258 11.2841 37.6258 11.2841C38.9297 14.6402 38.1094 17.1179 37.8606 17.732C39.3966 19.4383 40.3261 21.6118 40.3261 24.2719C40.3261 33.6301 34.722 35.6906 29.3877 36.2938C30.2469 37.0499 31.0125 38.5327 31.0125 40.8059C31.0125 44.0655 30.9848 46.6893 30.9848 47.4922C30.9848 48.1406 31.416 48.9003 32.6302 48.6611C42.1434 45.4357 48.9986 36.3059 48.9986 25.5445C48.9986 12.0878 38.2732 1.17993 25.0435 1.17993" stroke="#10316B"/>
<path d="M10.1611 36.1623C10.1083 36.2837 9.92109 36.3196 9.75051 36.2365C9.57676 36.157 9.47918 35.992 9.53551 35.8706C9.58708 35.7459 9.77471 35.7116 9.94807 35.7943C10.1222 35.8742 10.2214 36.0408 10.1611 36.1623Z" fill="#10316B"/>
<path d="M11.1313 37.2629C11.017 37.3707 10.7937 37.3206 10.6422 37.1504C10.4855 36.9805 10.4561 36.7533 10.572 36.644C10.6898 36.5363 10.9064 36.5867 11.0635 36.7566C11.2202 36.9285 11.2507 37.154 11.1313 37.2629Z" fill="#10316B"/>
<path d="M12.076 38.6662C11.9292 38.7699 11.6892 38.6727 11.5408 38.456C11.3941 38.2394 11.3941 37.9795 11.544 37.8754C11.6928 37.7713 11.9292 37.865 12.0796 38.08C12.2259 38.2999 12.2259 38.5601 12.076 38.6662Z" fill="#10316B"/>
<path d="M13.3698 40.0219C13.2385 40.1692 12.9588 40.1297 12.7541 39.9287C12.5446 39.7322 12.4863 39.4534 12.618 39.3062C12.7509 39.1585 13.0322 39.2001 13.2385 39.3994C13.4463 39.5955 13.5098 39.8763 13.3698 40.0219Z" fill="#10316B"/>
<path d="M15.1549 40.8091C15.097 40.9999 14.8276 41.0867 14.5563 41.0056C14.2853 40.9221 14.108 40.6985 14.1628 40.5057C14.2191 40.3136 14.4896 40.2232 14.763 40.31C15.0335 40.3931 15.2112 40.615 15.1549 40.8091Z" fill="#10316B"/>
<path d="M17.1154 40.9552C17.1221 41.1561 16.892 41.3227 16.6072 41.3259C16.3208 41.3328 16.0891 41.1702 16.0859 40.9725C16.0859 40.7696 16.3109 40.6045 16.5973 40.5997C16.8821 40.594 17.1154 40.7554 17.1154 40.9552Z" fill="#10316B"/>
<path d="M18.9398 40.6392C18.9739 40.8353 18.776 41.0367 18.4931 41.0899C18.2151 41.142 17.9576 41.0209 17.9223 40.8265C17.8878 40.6255 18.0893 40.4242 18.367 40.3721C18.6502 40.3221 18.9037 40.4399 18.9398 40.6392Z" fill="#10316B"/>
</svg>
