<svg width="50" height="50" viewBox="0 0 50 50" fill="none" xmlns="http://www.w3.org/2000/svg">
<path d="M21.0083 29.8823L21.5072 29.9156L21.5254 29.6427L21.3055 29.4801L21.0083 29.8823ZM20.6 36L20.1011 35.9667L20.0655 36.5H20.6V36ZM21.008 29.882L20.673 29.5108L20.2189 29.9206L20.7109 30.2841L21.008 29.882ZM32.1369 19.839L31.805 19.465L31.8019 19.4678L32.1369 19.839ZM31.3819 19.5873L31.1226 19.1597L31.1151 19.1644L31.3819 19.5873ZM17.6473 28.2523L17.4983 28.7296L17.7188 28.7984L17.9141 28.6752L17.6473 28.2523ZM11.7147 26.4007L11.8637 25.9234L11.8611 25.9226L11.7147 26.4007ZM12.0023 24.4951L11.8224 24.0285L11.8162 24.031L12.0023 24.4951ZM35.1203 15.5809L35.3002 16.0474L35.3138 16.0421L35.327 16.0361L35.1203 15.5809ZM36.7922 17.4505L36.3071 17.3295L36.3049 17.3381L36.3031 17.3467L36.7922 17.4505ZM32.8552 36.0031L32.3661 35.8993L32.3657 35.901L32.8552 36.0031ZM30.68 37.0278L30.3829 37.43L30.4095 37.4496L30.4384 37.4656L30.68 37.0278ZM24.6827 32.5969L24.9798 32.1948L24.6384 31.9426L24.3341 32.2385L24.6827 32.5969ZM21.8 35.4L22.1485 35.7585L22.1486 35.7585L21.8 35.4ZM21.7729 35.4264L21.4241 35.0681L21.4241 35.0681L21.7729 35.4264ZM25 48.5C12.0213 48.5 1.5 37.9787 1.5 25H0.5C0.5 38.531 11.469 49.5 25 49.5V48.5ZM48.5 25C48.5 37.9787 37.9787 48.5 25 48.5V49.5C38.531 49.5 49.5 38.531 49.5 25H48.5ZM25 1.5C37.9787 1.5 48.5 12.0213 48.5 25H49.5C49.5 11.469 38.531 0.5 25 0.5V1.5ZM1.5 25C1.5 12.0213 12.0213 1.5 25 1.5V0.5C11.469 0.5 0.5 11.469 0.5 25H1.5ZM20.5095 29.849L20.1011 35.9667L21.0989 36.0333L21.5072 29.9156L20.5095 29.849ZM20.7109 30.2841L20.7112 30.2844L21.3055 29.4801L21.3051 29.4799L20.7109 30.2841ZM31.8019 19.4678L20.673 29.5108L21.343 30.2532L32.4719 20.2102L31.8019 19.4678ZM31.6411 20.0149C31.7585 19.9437 31.8641 19.9058 31.9429 19.8895C32.0314 19.8713 32.0532 19.8863 32.0235 19.8761C32.0057 19.87 31.9524 19.8482 31.901 19.7871C31.843 19.7181 31.8133 19.6289 31.8165 19.543C31.8193 19.4677 31.8457 19.4251 31.8479 19.4217C31.8508 19.4171 31.8417 19.4325 31.805 19.465L32.4688 20.213C32.6191 20.0796 32.8053 19.8655 32.8158 19.58C32.8218 19.4195 32.7691 19.2656 32.6662 19.1433C32.57 19.0289 32.45 18.9652 32.3479 18.9302C32.1494 18.8621 31.9315 18.8709 31.7412 18.9101C31.5414 18.9513 31.3295 19.0344 31.1226 19.1598L31.6411 20.0149ZM17.9141 28.6752L31.6487 20.0102L31.1151 19.1644L17.3805 27.8294L17.9141 28.6752ZM11.5657 26.878L17.4983 28.7296L17.7962 27.775L11.8637 25.9234L11.5657 26.878ZM11.8162 24.031C11.3891 24.2023 11.0381 24.4022 10.7804 24.63C10.5258 24.855 10.3233 25.1434 10.2888 25.4884C10.2524 25.8521 10.4135 26.163 10.654 26.39C10.886 26.609 11.2057 26.7677 11.5683 26.8788L11.8611 25.9226C11.5831 25.8375 11.4212 25.739 11.3404 25.6628C11.3022 25.6267 11.2893 25.6025 11.2856 25.594C11.283 25.5879 11.2838 25.5879 11.2838 25.5878C11.2842 25.5845 11.2951 25.5097 11.4426 25.3793C11.5869 25.2518 11.8266 25.1043 12.1885 24.9591L11.8162 24.031ZM34.9404 15.1143L11.8224 24.0285L12.1822 24.9616L35.3002 16.0474L34.9404 15.1143ZM37.2773 17.5715C37.5042 16.662 37.3611 15.8639 36.851 15.3705C36.3338 14.8703 35.5825 14.8219 34.9136 15.1256L35.327 16.0361C35.714 15.8604 36.0002 15.9388 36.1558 16.0893C36.3183 16.2465 36.4833 16.623 36.3071 17.3295L37.2773 17.5715ZM33.3443 36.1069L37.2813 17.5543L36.3031 17.3467L32.3661 35.8993L33.3443 36.1069ZM30.4384 37.4656C31.0486 37.8022 31.7025 37.9562 32.2839 37.694C32.868 37.4306 33.1932 36.8316 33.3447 36.1052L32.3657 35.901C32.2423 36.4929 32.0317 36.7108 31.8729 36.7824C31.7114 36.8552 31.4151 36.8623 30.9216 36.59L30.4384 37.4656ZM24.3856 32.9991L30.3829 37.43L30.9771 36.6257L24.9798 32.1948L24.3856 32.9991ZM22.1486 35.7585L25.0313 32.9554L24.3341 32.2385L21.4514 35.0415L22.1486 35.7585ZM22.1216 35.7847C22.1306 35.7759 22.1396 35.7672 22.1485 35.7585L21.4515 35.0415C21.4422 35.0505 21.4331 35.0594 21.4241 35.0681L22.1216 35.7847ZM20.6 36.5C20.9748 36.5 21.2746 36.4143 21.5349 36.2636C21.7779 36.123 21.9689 35.9334 22.1217 35.7846L21.4241 35.0681C21.2545 35.2333 21.1509 35.3305 21.0339 35.3982C20.9343 35.4558 20.8089 35.5 20.6 35.5V36.5Z" fill="#10316B"/>
</svg>
