<svg width="50" height="50" viewBox="0 0 50 50" fill="none" xmlns="http://www.w3.org/2000/svg">
<path d="M25.7911 38.3525V38.8525H25.7913L25.7911 38.3525ZM40.0621 24.0815L40.5621 24.0817V24.0817L40.0621 24.0815ZM25.7852 38.3525L25.785 38.8525H25.7852V38.3525ZM18.9653 36.6155L19.2048 36.1765L19.0305 36.0814L18.8385 36.1318L18.9653 36.6155ZM11.4 38.6L10.9177 38.468L10.689 39.3034L11.5269 39.0836L11.4 38.6ZM13.4246 31.2048L13.9069 31.3369L13.962 31.1357L13.8577 30.955L13.4246 31.2048ZM11.5196 24.0702L12.0196 24.0705V24.0704L11.5196 24.0702ZM25.7909 9.8L25.7912 9.3H25.7909V9.8ZM35.8862 13.9854L35.5324 14.3388L35.5325 14.3388L35.8862 13.9854ZM25 48.5C12.0213 48.5 1.5 37.9787 1.5 25H0.5C0.5 38.531 11.469 49.5 25 49.5V48.5ZM48.5 25C48.5 37.9787 37.9787 48.5 25 48.5V49.5C38.531 49.5 49.5 38.531 49.5 25H48.5ZM25 1.5C37.9787 1.5 48.5 12.0213 48.5 25H49.5C49.5 11.469 38.531 0.5 25 0.5V1.5ZM1.5 25C1.5 12.0213 12.0213 1.5 25 1.5V0.5C11.469 0.5 0.5 11.469 0.5 25H1.5ZM25.7913 38.8525C33.9357 38.8492 40.5589 32.2244 40.5621 24.0817L39.5621 24.0813C39.5591 31.6721 33.3833 37.8494 25.7909 37.8525L25.7913 38.8525ZM25.7852 38.8525H25.7911V37.8525H25.7852V38.8525ZM18.7259 37.0544C20.8839 38.2315 23.3131 38.8517 25.785 38.8525L25.7853 37.8525C23.4803 37.8517 21.2157 37.2734 19.2048 36.1765L18.7259 37.0544ZM11.5269 39.0836L19.0922 37.0991L18.8385 36.1318L11.2731 38.1164L11.5269 39.0836ZM12.9424 31.0728L10.9177 38.468L11.8823 38.732L13.9069 31.3369L12.9424 31.0728ZM11.0196 24.07C11.0185 26.6728 11.6986 29.2141 12.9915 31.4547L13.8577 30.955C12.6528 28.8669 12.0186 26.4982 12.0196 24.0705L11.0196 24.07ZM25.7909 9.3C17.6486 9.3 11.0229 15.9256 11.0196 24.07L12.0196 24.0704C12.0227 16.4778 18.201 10.3 25.7909 10.3V9.3ZM36.24 13.6321C33.4518 10.8406 29.7414 9.30171 25.7912 9.3L25.7907 10.3C29.4759 10.3016 32.9319 11.7351 35.5324 14.3388L36.24 13.6321ZM40.5621 24.0817C40.5637 20.136 39.0281 16.4233 36.24 13.6321L35.5325 14.3388C38.1331 16.9424 39.5636 20.4007 39.5621 24.0813L40.5621 24.0817Z" fill="#10316B"/>
<path d="M32.9808 27.4751L32.5519 27.7321L32.5519 27.7322L32.9808 27.4751ZM32.2974 27.0586L32.5213 26.6115L32.5212 26.6115L32.2974 27.0586ZM29.8608 25.8984L30.0319 25.4286L30.0318 25.4286L29.8608 25.8984ZM29.0585 26.0769L28.6423 25.7997L28.6423 25.7998L29.0585 26.0769ZM27.9294 27.4751L28.3058 27.8042L28.3059 27.8042L27.9294 27.4751ZM27.1569 27.5644L27.3808 27.1173L27.3807 27.1172L27.1569 27.5644ZM24.2893 25.7945L23.9565 26.1676L23.9565 26.1676L24.2893 25.7945ZM22.4619 22.5965L22.8148 22.9508L22.8148 22.9507L22.4619 22.5965ZM23.3534 21.3769L23.8006 21.6005L23.8007 21.6003L23.3534 21.3769ZM23.3236 20.7522L22.8763 20.9756L22.8763 20.9756L23.3236 20.7522ZM22.2242 18.1045L22.6858 17.9124L22.6858 17.9123L22.2242 18.1045ZM21.4219 17.4924L21.3968 17.9917L21.3968 17.9917L21.4219 17.4924ZM19.9956 24.5895L20.3958 24.2898L20.3957 24.2897L19.9956 24.5895ZM26.0871 29.9739L26.2854 29.5148L26.2854 29.5148L26.0871 29.9739ZM28.12 30.725L28.2714 30.2485L28.2712 30.2484L28.12 30.725ZM30.3659 30.8663L30.2921 30.3718L30.292 30.3718L30.3659 30.8663ZM32.7729 29.1708L33.2438 29.3389L33.2439 29.3387L32.7729 29.1708ZM33.4097 27.2182C33.2918 27.0212 33.1051 26.9084 32.9801 26.8398C32.8564 26.7718 32.6706 26.6863 32.5213 26.6115L32.0736 27.5057C32.1665 27.5522 32.2532 27.5936 32.3239 27.628C32.3978 27.6638 32.4535 27.6914 32.4988 27.7163C32.604 27.7741 32.5808 27.7803 32.5519 27.7321L33.4097 27.2182ZM32.5212 26.6115C32.3405 26.521 31.8109 26.2597 31.2854 26.006C30.7757 25.7599 30.2256 25.4992 30.0319 25.4286L29.6896 26.3682C29.8229 26.4168 30.3129 26.6469 30.8506 26.9065C31.3725 27.1585 31.8978 27.4177 32.0736 27.5057L32.5212 26.6115ZM30.0318 25.4286C29.8834 25.3746 29.6339 25.2822 29.3694 25.3125C29.0496 25.3491 28.8149 25.5407 28.6423 25.7997L29.4746 26.3541C29.5102 26.3006 29.529 26.2885 29.5257 26.2908C29.5175 26.2966 29.5003 26.304 29.4831 26.306C29.4722 26.3072 29.4792 26.304 29.5178 26.313C29.5581 26.3224 29.61 26.3392 29.6898 26.3683L30.0318 25.4286ZM28.6423 25.7998C28.4264 26.1241 27.7667 26.9015 27.5529 27.1461L28.3059 27.8042C28.5081 27.5728 29.2152 26.7436 29.4747 26.354L28.6423 25.7998ZM27.553 27.146C27.5387 27.1623 27.5277 27.1731 27.52 27.1799C27.5124 27.1867 27.5086 27.189 27.5088 27.1888C27.5119 27.1869 27.5236 27.1814 27.5385 27.1796C27.551 27.178 27.5484 27.1814 27.5223 27.1747C27.4946 27.1676 27.4493 27.1516 27.3808 27.1173L26.933 28.0114C27.1442 28.1172 27.3921 28.2047 27.6591 28.1723C27.9465 28.1373 28.1541 27.9778 28.3058 27.8042L27.553 27.146ZM27.3807 27.1172C26.9751 26.9142 25.9194 26.5785 24.6221 25.4213L23.9565 26.1676C25.3833 27.4403 26.6255 27.8575 26.9331 28.0115L27.3807 27.1172ZM24.6221 25.4213C23.6213 24.5286 22.9373 23.4153 22.7376 23.0725L21.8735 23.576C22.0899 23.9472 22.8371 25.1692 23.9565 26.1676L24.6221 25.4213ZM22.7376 23.0725C22.7114 23.0276 22.7119 23.0124 22.7131 23.0218C22.7148 23.0351 22.7127 23.0532 22.7075 23.0674C22.7039 23.0768 22.7036 23.0719 22.722 23.049C22.7419 23.0243 22.7686 22.9968 22.8148 22.9508L22.109 22.2423C22.0332 22.3178 21.8573 22.4845 21.7701 22.719C21.6652 23.0013 21.7099 23.2951 21.8735 23.576L22.7376 23.0725ZM22.8148 22.9507C22.9924 22.7738 23.2305 22.4675 23.3765 22.297L22.617 21.6465C22.4065 21.8924 22.2523 22.0996 22.109 22.2423L22.8148 22.9507ZM23.3765 22.297C23.6043 22.0311 23.6933 21.8153 23.8006 21.6005L22.9061 21.1534C22.7757 21.4142 22.7459 21.4961 22.617 21.6465L23.3765 22.297ZM23.8007 21.6003C24.0214 21.1582 23.8912 20.7695 23.7709 20.5287L22.8763 20.9756C22.9075 21.038 22.9171 21.0742 22.9193 21.0954C22.9203 21.1046 22.92 21.1115 22.9189 21.1179C22.9178 21.1242 22.9149 21.1358 22.906 21.1536L23.8007 21.6003ZM23.771 20.5288C23.7712 20.5293 23.7701 20.5271 23.7672 20.5208C23.7645 20.5149 23.7609 20.5071 23.7564 20.4971C23.7475 20.4771 23.7361 20.4509 23.7223 20.4188C23.6946 20.3546 23.659 20.2704 23.6173 20.1706C23.5338 19.9712 23.4275 19.7139 23.3143 19.4388C23.0885 18.8904 22.8349 18.2705 22.6858 17.9124L21.7626 18.2966C21.9107 18.6525 22.1622 19.2671 22.3896 19.8195C22.6098 20.3543 22.8211 20.8649 22.8763 20.9756L23.771 20.5288ZM22.6858 17.9123C22.5192 17.5121 22.3078 17.2303 22.0102 17.0897C21.8649 17.0211 21.73 17.0015 21.6273 16.9957C21.5785 16.9929 21.5337 16.9931 21.5045 16.9933C21.4701 16.9935 21.4573 16.9935 21.447 16.993L21.3968 17.9917C21.4412 17.994 21.4855 17.9934 21.5102 17.9933C21.5401 17.9931 21.5564 17.9933 21.5705 17.9941C21.5936 17.9954 21.5912 17.9978 21.583 17.9939C21.5595 17.9828 21.6398 18.0015 21.7626 18.2967L22.6858 17.9123ZM21.447 16.993C21.226 16.9819 20.9775 16.9797 20.7385 16.9797V17.9797C20.9749 17.9797 21.2023 17.982 21.3968 17.9917L21.447 16.993ZM20.7385 16.9797C20.3861 16.9797 19.8564 17.1104 19.4188 17.5883L20.1564 18.2636C20.3725 18.0276 20.6154 17.9797 20.7385 17.9797V16.9797ZM19.4188 17.5883C19.0896 17.9479 18.0396 18.9372 18.0396 20.9008H19.0396C19.0396 19.3542 19.8319 18.6181 20.1564 18.2636L19.4188 17.5883ZM18.0396 20.9008C18.0396 21.8909 18.3969 22.8354 18.7549 23.5405C19.1164 24.2525 19.5011 24.7634 19.5955 24.8894L20.3957 24.2897C20.3118 24.1777 19.9684 23.7218 19.6465 23.0878C19.321 22.4467 19.0396 21.6659 19.0396 20.9008H18.0396ZM19.5954 24.8892C19.5953 24.8891 19.5956 24.8895 19.5963 24.8905C19.5971 24.8915 19.5981 24.8929 19.5994 24.8948C19.6021 24.8985 19.6055 24.9034 19.6099 24.9096C19.6188 24.9222 19.6299 24.9381 19.6439 24.9582C19.6716 24.998 19.7085 25.0509 19.7536 25.1147C19.844 25.2424 19.9672 25.4133 20.1213 25.6163C20.4293 26.0222 20.861 26.5568 21.4021 27.1338C22.4798 28.2829 24.0128 29.6228 25.8889 30.4329L26.2854 29.5148C22.8562 28.0341 20.6008 24.5636 20.3958 24.2898L19.5954 24.8892ZM25.8889 30.4329C26.7615 30.8097 27.4435 31.0349 27.9688 31.2016L28.2712 30.2484C27.7607 30.0865 27.1143 29.8728 26.2854 29.5148L25.8889 30.4329ZM27.9685 31.2015C28.9223 31.5046 29.7839 31.4589 30.4399 31.3608L30.292 30.3718C29.7193 30.4574 29.026 30.4883 28.2714 30.2485L27.9685 31.2015ZM30.4398 31.3608C30.8761 31.2957 31.4708 31.0428 31.9847 30.7135C32.4865 30.3919 33.0373 29.9176 33.2438 29.3389L32.302 29.0028C32.2113 29.257 31.9011 29.5793 31.4451 29.8716C31.001 30.1562 30.5409 30.3346 30.2921 30.3718L30.4398 31.3608ZM33.2439 29.3387C33.407 28.8813 33.4902 28.4525 33.5198 28.1093C33.5346 27.9382 33.5367 27.7808 33.5262 27.6466C33.5178 27.54 33.4969 27.3635 33.4097 27.2181L32.5519 27.7322C32.5093 27.661 32.5218 27.6296 32.5292 27.7246C32.5345 27.7922 32.5347 27.8932 32.5235 28.0233C32.5011 28.2826 32.4359 28.6273 32.302 29.0029L33.2439 29.3387Z" fill="#10316B"/>
</svg>
