<svg width="80" height="74" viewBox="0 0 80 74" fill="none" xmlns="http://www.w3.org/2000/svg">
<g clip-path="url(#clip0_71_121)">
<path d="M28.9433 21.3939L7.20627 33.2566C6.85479 33.4484 6.46897 33.569 6.07085 33.6117C5.67273 33.6543 5.27011 33.6181 4.88599 33.5051C4.50187 33.3921 4.14378 33.2045 3.83216 32.9531C3.52055 32.7017 3.26152 32.3913 3.06988 32.0398L0.162598 27.5621C0.887249 26.1868 1.99885 25.0538 3.36014 24.3031L24.2935 12.8848C24.8034 12.607 25.4026 12.543 25.9597 12.7068C26.5167 12.8706 26.9859 13.2488 27.2642 13.7584L29.8169 18.4318C30.0925 18.9407 30.1553 19.5381 29.9916 20.0932C29.8279 20.6483 29.451 21.116 28.9433 21.3939Z" fill="url(#paint0_linear_71_121)"/>
<path d="M40.8891 42.7972L40.7945 49.1318L2.88161 32.6855C2.40065 32.4421 1.96202 32.1229 1.58255 31.74C1.33767 31.4999 -0.301755 29.8936 0.0423924 27.9204C0.122382 27.4942 0.278342 27.0859 0.50283 26.7149C0.728795 26.3169 1.31498 25.4111 2.37295 24.9318C2.90996 24.7006 3.49024 24.5872 4.07477 24.599C4.79151 24.613 5.4933 24.8064 6.11602 25.1615L38.8279 39.2385C39.4561 39.5957 39.9781 40.1135 40.3402 40.7388C40.7024 41.3642 40.8918 42.0745 40.8891 42.7972Z" fill="url(#paint1_linear_71_121)"/>
<path d="M38.0235 5.36119L24.3614 12.8131C23.743 13.1504 23.5151 13.9251 23.8524 14.5435C24.1897 15.1619 24.9645 15.3898 25.5829 15.0525L39.2449 7.60058C39.8633 7.26328 40.0912 6.48854 39.7539 5.87015C39.4166 5.25176 38.6419 5.02389 38.0235 5.36119Z" fill="#0B409C"/>
<path d="M37.0448 9.83548L27.4141 15.0885C26.7957 15.4258 26.5679 16.2005 26.9052 16.8189C27.2425 17.4373 28.0172 17.6652 28.6356 17.3279L38.2663 12.0749C38.8847 11.7376 39.1125 10.9628 38.7752 10.3444C38.438 9.72606 37.6632 9.49819 37.0448 9.83548Z" fill="#0B409C"/>
<path d="M35.2527 14.9342L26.4952 19.7109C25.8768 20.0482 25.6489 20.823 25.9862 21.4413C26.3235 22.0597 27.0983 22.2876 27.7166 21.9503L36.4742 17.1736C37.0926 16.8363 37.3204 16.0615 36.9831 15.4432C36.6458 14.8248 35.8711 14.5969 35.2527 14.9342Z" fill="#0B409C"/>
<path d="M47.5003 0.161672L42.2579 3.0211C41.6395 3.3584 41.4116 4.13314 41.7489 4.75153C42.0862 5.36992 42.861 5.59779 43.4793 5.26049L48.7217 2.40106C49.3401 2.06376 49.568 1.28903 49.2307 0.670636C48.8934 0.0522457 48.1187 -0.175625 47.5003 0.161672Z" fill="#0B409C"/>
<path d="M44.2543 5.96175L40.647 7.92931C40.0286 8.26661 39.8008 9.04134 40.1381 9.65973C40.4754 10.2781 41.2501 10.506 41.8685 10.1687L45.4758 8.20114C46.0941 7.86384 46.322 7.0891 45.9847 6.47071C45.6474 5.85232 44.8727 5.62446 44.2543 5.96175Z" fill="#0B409C"/>
<path d="M40.9476 11.7973L38.2691 13.2583C37.6507 13.5956 37.4228 14.3703 37.7601 14.9887C38.0974 15.6071 38.8722 15.835 39.4906 15.4977L42.169 14.0367C42.7874 13.6994 43.0153 12.9247 42.678 12.3063C42.3407 11.6879 41.566 11.46 40.9476 11.7973Z" fill="#0B409C"/>
<path d="M51.0576 52.2773L72.7956 40.4184C73.1471 40.2267 73.5329 40.106 73.931 40.0634C74.3291 40.0207 74.7317 40.0569 75.1159 40.1699C75.5 40.2829 75.8581 40.4705 76.1697 40.7219C76.4813 40.9733 76.7403 41.2837 76.932 41.6353L79.8393 46.1129C79.3644 47.0073 78.7259 47.8046 77.9568 48.4634C77.5496 48.8095 77.1087 49.1138 76.6408 49.3719L55.7045 60.7931C55.1949 61.0712 54.5956 61.1355 54.0385 60.9718C53.4815 60.8082 53.0122 60.43 52.7339 59.9204L50.1812 55.247C50.0436 54.9945 49.9572 54.7174 49.9268 54.4314C49.8964 54.1455 49.9227 53.8564 50.0041 53.5806C50.0855 53.3048 50.2204 53.0478 50.4012 52.8241C50.5819 52.6005 50.805 52.4147 51.0576 52.2773Z" fill="url(#paint2_linear_71_121)"/>
<path d="M39.1114 30.8778L39.2059 24.5432L77.1188 40.9942C77.5998 41.2376 78.0384 41.5568 78.4179 41.9397C78.6627 42.1798 80.3022 43.7861 79.958 45.7593C79.8776 46.1854 79.7217 46.5936 79.4976 46.9648C79.2716 47.3628 78.6854 48.2686 77.6265 48.7479C77.0896 48.9794 76.5092 49.0929 75.9247 49.0807C75.2075 49.0658 74.5055 48.8707 73.8834 48.5134L41.1725 34.4412C40.5443 34.084 40.0224 33.5662 39.6602 32.9409C39.298 32.3155 39.1086 31.6052 39.1114 30.8825V30.8778Z" fill="url(#paint3_linear_71_121)"/>
<path d="M41.9785 68.3114L55.6406 60.8595C56.259 60.5222 56.4868 59.7475 56.1495 59.1291C55.8122 58.5107 55.0375 58.2828 54.4191 58.6201L40.757 66.072C40.1386 66.4093 39.9107 67.1841 40.248 67.8025C40.5853 68.4208 41.3601 68.6487 41.9785 68.3114Z" fill="#0B409C"/>
<path d="M42.9566 63.8377L52.5873 58.5847C53.2057 58.2474 53.4336 57.4727 53.0963 56.8543C52.759 56.2359 51.9843 56.008 51.3659 56.3453L41.7352 61.5983C41.1168 61.9356 40.8889 62.7104 41.2262 63.3288C41.5635 63.9472 42.3383 64.175 42.9566 63.8377Z" fill="#0B409C"/>
<path d="M44.7488 58.7377L53.5063 53.9609C54.1247 53.6237 54.3525 52.8489 54.0152 52.2305C53.6779 51.6121 52.9032 51.3843 52.2848 51.7216L43.5273 56.4983C42.9089 56.8356 42.681 57.6103 43.0183 58.2287C43.3556 58.8471 44.1304 59.075 44.7488 58.7377Z" fill="#0B409C"/>
<path d="M32.5036 73.5123L37.746 70.6528C38.3644 70.3155 38.5923 69.5408 38.255 68.9224C37.9177 68.304 37.143 68.0762 36.5246 68.4135L31.2822 71.2729C30.6638 71.6102 30.4359 72.3849 30.7732 73.0033C31.1105 73.6217 31.8852 73.8496 32.5036 73.5123Z" fill="#0B409C"/>
<path d="M35.7486 67.7107L39.3559 65.7432C39.9743 65.4059 40.2022 64.6311 39.8649 64.0128C39.5276 63.3944 38.7528 63.1665 38.1344 63.5038L34.5272 65.4713C33.9088 65.8086 33.6809 66.5834 34.0182 67.2018C34.3555 67.8202 35.1302 68.048 35.7486 67.7107Z" fill="#0B409C"/>
<path d="M39.0544 61.8758L41.7328 60.4148C42.3512 60.0775 42.5791 59.3028 42.2418 58.6844C41.9045 58.066 41.1298 57.8381 40.5114 58.1754L37.8329 59.6364C37.2145 59.9737 36.9867 60.7484 37.324 61.3668C37.6613 61.9852 38.436 62.2131 39.0544 61.8758Z" fill="#0B409C"/>
</g>
<defs>
<linearGradient id="paint0_linear_71_121" x1="28.6915" y1="16.8116" x2="1.32917" y2="30.5723" gradientUnits="userSpaceOnUse">
<stop offset="0.11" stop-color="#0B409C"/>
<stop offset="0.41" stop-color="#0C3C8F"/>
<stop offset="0.96" stop-color="#10326E"/>
<stop offset="1" stop-color="#10316B"/>
</linearGradient>
<linearGradient id="paint1_linear_71_121" x1="42.5935" y1="43.4637" x2="-0.628921" y2="29.8768" gradientUnits="userSpaceOnUse">
<stop stop-color="#4CACFF"/>
<stop offset="1" stop-color="#4CACFF"/>
</linearGradient>
<linearGradient id="paint2_linear_71_121" x1="51.1296" y1="57.1535" x2="78.5247" y2="43.489" gradientUnits="userSpaceOnUse">
<stop offset="0.11" stop-color="#0B409C"/>
<stop offset="0.41" stop-color="#0C3C8F"/>
<stop offset="0.96" stop-color="#10326E"/>
<stop offset="1" stop-color="#10316B"/>
</linearGradient>
<linearGradient id="paint3_linear_71_121" x1="37.321" y1="30.4678" x2="80.4791" y2="44.1905" gradientUnits="userSpaceOnUse">
<stop stop-color="#4CACFF"/>
<stop offset="1" stop-color="#4CACFF"/>
</linearGradient>
<clipPath id="clip0_71_121">
<rect width="80" height="73.6739" fill="white"/>
</clipPath>
</defs>
</svg>
