<svg width="66" height="66" viewBox="0 0 66 66" fill="none" xmlns="http://www.w3.org/2000/svg">
<path d="M33 0C37.3336 0 41.6248 0.85357 45.6286 2.51198C49.6323 4.17038 53.2702 6.60114 56.3345 9.66548C59.3989 12.7298 61.8296 16.3677 63.488 20.3714C65.1464 24.3752 66 28.6664 66 33C66 41.7521 62.5232 50.1458 56.3345 56.3345C50.1458 62.5232 41.7521 66 33 66C28.6664 66 24.3752 65.1464 20.3714 63.488C16.3677 61.8296 12.7298 59.3989 9.66548 56.3345C3.47678 50.1458 0 41.7521 0 33C0 24.2479 3.47678 15.8542 9.66548 9.66548C15.8542 3.47678 24.2479 0 33 0ZM26.4 43.989C26.928 45.771 26.862 47.421 26.4 48.939C26.4 49.104 26.268 49.269 26.202 49.5C26.136 49.5 26.07 49.731 25.971 49.896C25.608 50.688 25.08 51.447 24.453 52.107C22.539 54.219 19.8 55.011 18.711 54.351C17.457 53.625 18.15 50.655 20.328 48.312C22.704 45.804 26.136 44.154 26.136 44.154L26.4 43.989ZM53.691 14.124C52.206 8.25 42.471 6.336 33.297 9.603C27.819 11.55 21.879 14.586 17.622 18.579C12.573 23.331 11.748 27.456 12.078 29.172C13.2 35.244 21.582 39.237 25.014 42.174V42.207C24.024 42.702 16.632 46.431 14.85 50.259C13.068 54.285 15.18 57.189 16.5 57.585C20.922 58.773 25.377 56.628 27.753 53.031C30.063 49.599 29.898 45.144 28.875 42.9C30.261 42.57 31.878 42.405 33.924 42.636C39.732 43.329 40.854 46.926 40.623 48.444C40.425 49.962 39.204 50.787 38.808 51.051C38.412 51.282 38.28 51.381 38.313 51.579C38.346 51.843 38.544 51.843 38.874 51.777C39.369 51.678 41.943 50.556 42.042 47.751C42.174 44.187 38.775 40.227 32.769 40.326C30.294 40.392 28.743 40.623 27.621 41.052L27.357 40.755C23.628 36.795 16.764 33.99 17.061 28.644C17.16 26.697 17.82 21.615 30.261 15.411C40.425 10.329 48.576 11.715 49.995 14.85C52.008 19.239 45.639 27.456 35.079 28.644C31.053 29.106 28.908 27.522 28.38 26.961C27.819 26.4 27.753 26.301 27.555 26.4C27.192 26.631 27.423 27.159 27.555 27.489C27.852 28.314 29.172 29.7 31.35 30.492C33.297 31.119 38.049 31.482 43.758 29.271C50.16 26.796 55.176 19.899 53.691 14.124Z" fill="#0A9A67"/>
</svg>
